<svg xmlns="http://www.w3.org/2000/svg" viewBox="0 0 1046 274.4" role="img" focusable="false">
  <title id="logo-title">Home, logo Geheugen van Nederland</title>
  <defs>
    <style>
      .cls-1 {
        fill: #232451;
      }
    </style>
  </defs>
  <path class="cls-1" d="M74.5,137.9c0-37.7,26.6-56.5,55.3-56.5,27.2,0,47.1,15.9,48.8,38.8h-21c-1.9-12.5-12.8-20.8-27.9-20.8-19.9,0-35.1,14-35.1,38.5s15.2,39.3,34.7,39.3c15.1,0,29.4-9.9,29.4-21.8,0-3.4-2.2-5.6-5.7-5.6H130.6v-16H160A18.2,18.2,0,0,1,178.3,152v41.2H159.7V175.7c-4.1,11.2-16.3,18.8-31.1,18.8C100.6,194.5,74.5,175.7,74.5,137.9Zm196.1,28.8c-3,16.9-17.9,27.8-37.5,27.8-26,0-40.6-20.6-40.6-41.4s13-40.8,39.1-40.8,38.7,19.4,38.7,38.4a52.6,52.6,0,0,1-.4,6.6H211.2c1.4,12.8,9.6,21,21.9,21,10,0,16.5-4.1,18.5-11.6Zm-58.9-22.2h39.1c-.8-10.1-7.7-17.6-19.2-17.6S213.7,132.5,211.7,144.5Zm239.1,22.2c-3,16.9-17.9,27.8-37.4,27.8-26.1,0-40.6-20.6-40.6-41.4s12.9-40.8,39-40.8,38.7,19.4,38.7,38.4c0,2.7-.2,5.1-.3,6.6H391.4c1.4,12.8,9.6,21,22,21,9.9,0,16.4-4.1,18.4-11.6Zm-58.9-22.2H431c-.7-10.1-7.7-17.6-19.2-17.6S393.9,132.5,391.9,144.5Zm146.6,48.7H519V180.9c-4.4,8.7-13.4,13.6-24.7,13.6-17.9,0-29.6-13-29.6-31.6V113.6H484v45.2c0,10.9,6.8,18.4,16.6,18.4S519,168.7,519,157V113.6h19.5Zm94.4-79.6v87c0,16.6-12,28.8-29.8,28.8H563.7V212.9h36.7c7.7,0,13.3-5.8,13.3-14.2V184.3c-4,6.2-13.2,10.2-23.1,10.2-24,0-37.9-16.8-37.9-41.1s13.9-41.1,37.6-41.1c9.9,0,18.6,4.1,23.2,10.3v-9Zm-18,39.8c0-14.7-8.5-24.3-21.6-24.3S572,138.7,572,153.4s8.3,24.3,21.3,24.3S614.9,168.1,614.9,153.4Zm110.3,13.3c-3,16.9-17.9,27.8-37.5,27.8-26,0-40.6-20.6-40.6-41.4s13-40.8,39.1-40.8,38.6,19.4,38.6,38.4a56.2,56.2,0,0,1-.3,6.6H665.8c1.4,12.8,9.6,21,21.9,21,10,0,16.5-4.1,18.5-11.6Zm-58.9-22.2h39.1c-.8-10.1-7.7-17.6-19.2-17.6S668.3,132.5,666.3,144.5Zm72.8-30.9h19.4v12.3c4.4-8.7,13.4-13.6,24.8-13.6,18,0,29.7,13,29.7,31.6v49.3H793.6V148c0-10.9-6.7-18.5-16.6-18.5s-18.5,8.6-18.5,20.3v43.4H739.1ZM572.5,325.9c-3,16.9-17.8,27.8-37.4,27.8-26.1,0-40.6-20.6-40.6-41.4s12.9-40.8,39-40.8,38.7,19.5,38.7,38.4c0,2.7-.2,5.1-.3,6.6H513.1c1.4,12.8,9.6,21,22,21,9.9,0,16.4-4.1,18.4-11.6Zm-58.9-22.2h39.2c-.8-10.1-7.8-17.6-19.3-17.6S515.6,291.7,513.6,303.7Zm69.7,8.9c0-24.3,14.1-41.1,37.6-41.1,10.5,0,18.8,4.5,23.4,10.9V238.7h19.3V352.4H644.3v-10c-4.6,7-13.4,11.3-23.1,11.3C597.4,353.7,583.3,336.9,583.3,312.6Zm62.3,0c0-14.7-8.6-24.3-21.5-24.3s-21.5,9.6-21.5,24.3,8.5,24.3,21.5,24.3S645.6,327.3,645.6,312.6Zm110.2,13.3c-3,16.9-17.8,27.8-37.4,27.8-26.1,0-40.6-20.6-40.6-41.4s12.9-40.8,39-40.8,38.7,19.5,38.7,38.4c0,2.7-.2,5.1-.3,6.6H696.4c1.5,12.8,9.7,21,22,21,9.9,0,16.4-4.1,18.5-11.6Zm-58.9-22.2h39.2c-.8-10.1-7.8-17.6-19.3-17.6S699,291.7,696.9,303.7Zm109.5-14.6c-12.4,0-17.3,10.5-17.3,25.7v37.6H769.7V272.8h19.4v14c4-10.1,10.2-14,20.4-14h9.3v16.3Zm24.8-50.4h19.2V352.4H831.2Zm103.9,62.5v51.2H916V340.6c-3.3,7.8-12.5,13.1-23.9,13.1-15.8,0-26.5-10.1-26.5-23.9,0-15.5,12-25.1,29.8-25.1h14.7c4,0,5.9-2.2,5.9-5.4,0-7.7-6-13.2-16.3-13.2s-16.4,6.4-16.7,13.5H865.6c.9-15.8,14.4-28.1,35.1-28.1S935.1,283.2,935.1,301.2ZM916,318.8v-1.3H898.1c-8.2,0-13.7,4.6-13.7,11.5s5,10.3,12.3,10.3C908.9,339.3,916,330.8,916,318.8Zm36.2-46h19.4v12.3c4.4-8.7,13.4-13.6,24.8-13.6,18,0,29.7,13,29.7,31.6v49.3h-19.4V307.2c0-10.9-6.6-18.5-16.6-18.5s-18.5,8.6-18.5,20.3v43.4H952.2Zm88.1,39.8c0-24.3,14.1-41.1,37.6-41.1,10.4,0,18.8,4.5,23.4,10.9V238.7h19.3V352.4h-19.3v-10c-4.6,7-13.4,11.3-23.1,11.3C1054.4,353.7,1040.3,336.9,1040.3,312.6Zm62.3,0c0-14.7-8.6-24.3-21.5-24.3s-21.5,9.6-21.5,24.3,8.5,24.3,21.5,24.3S1102.6,327.3,1102.6,312.6ZM79.4,272.8H99.2l18.5,55,18.3-55h19.9l-29.2,79.6H108.5Zm150.2,28.4v51.2H210.5V340.6c-3.3,7.8-12.4,13.1-23.8,13.1-15.8,0-26.6-10.1-26.6-23.9,0-15.5,12.1-25.1,29.9-25.1h14.7c3.9,0,5.8-2.2,5.8-5.4,0-7.7-6-13.2-16.2-13.2s-16.5,6.4-16.8,13.5H160.1c1-15.8,14.4-28.1,35.1-28.1S229.6,283.2,229.6,301.2Zm-19.1,17.6v-1.3H192.7c-8.2,0-13.8,4.6-13.8,11.5s5.1,10.3,12.4,10.3C203.4,339.3,210.5,330.8,210.5,318.8Zm36.3-46h19.4v12.3c4.4-8.7,13.4-13.6,24.8-13.6,18,0,29.7,13,29.7,31.6v49.3H301.2V307.2c0-10.9-6.6-18.5-16.5-18.5s-18.5,8.6-18.5,20.3v43.4H246.8Zm38-193.3h19.3v46.4c4.4-8.7,13.5-13.6,24.9-13.6,17.9,0,29.5,13,29.5,31.6v49.3H339.3V148c0-10.9-6.8-18.5-16.8-18.5s-18.4,8.6-18.4,20.3v43.4H284.8ZM461,353.9a19,19,0,0,0,19.3-19.3V241.8H461v93.6c-14.8-.5-19-13.3-24.2-40.1-4.4-23.1-11.7-54.8-42.2-54.8a18.9,18.9,0,0,0-19.2,19.3v92.6h19.2V258.9c14.9.5,19,13.3,24.2,40.1C423.2,322.2,430.5,353.9,461,353.9Z" transform="translate(-74.5 -79.5)"></path>
</svg>